<svg xmlns="http://www.w3.org/2000/svg" xmlns:xlink="http://www.w3.org/1999/xlink" width="500" zoomAndPan="magnify" viewBox="0 0 375 225" height="300" preserveAspectRatio="xMidYMid meet" version="1.0"><defs><g/><clipPath id="8555d6068f"><path d="M 124 139 L 169 139 L 169 177 L 124 177 Z M 124 139 " clip-rule="nonzero"/></clipPath><clipPath id="4659f6961c"><path d="M 91.90625 16.144531 L 279.070312 4.914062 L 290.296875 192.078125 L 103.132812 203.304688 Z M 91.90625 16.144531 " clip-rule="nonzero"/></clipPath><clipPath id="e2b28f3485"><path d="M 91.90625 16.144531 L 279.070312 4.914062 L 290.296875 192.078125 L 103.132812 203.304688 Z M 91.90625 16.144531 " clip-rule="nonzero"/></clipPath><clipPath id="6cff06f2a1"><path d="M 105 6 L 281 6 L 281 192 L 105 192 Z M 105 6 " clip-rule="nonzero"/></clipPath><clipPath id="dc90147c0c"><path d="M 91.90625 16.144531 L 279.070312 4.914062 L 290.296875 192.078125 L 103.132812 203.304688 Z M 91.90625 16.144531 " clip-rule="nonzero"/></clipPath><clipPath id="9394e98a77"><path d="M 91.90625 16.144531 L 279.070312 4.914062 L 290.296875 192.078125 L 103.132812 203.304688 Z M 91.90625 16.144531 " clip-rule="nonzero"/></clipPath><clipPath id="83329a5d9d"><path d="M 145.476562 104.085938 L 181.476562 104.085938 L 181.476562 140.085938 L 145.476562 140.085938 Z M 145.476562 104.085938 " clip-rule="nonzero"/></clipPath><clipPath id="ec02b8b47d"><path d="M 184.402344 104.085938 L 219.652344 104.085938 L 219.652344 139.335938 L 184.402344 139.335938 Z M 184.402344 104.085938 " clip-rule="nonzero"/></clipPath></defs><g clip-path="url(#8555d6068f)"><g clip-path="url(#4659f6961c)"><g clip-path="url(#e2b28f3485)"><path fill="#dc143c" d="M 165.980469 168.804688 C 162.367188 167.832031 158.894531 166.5 155.5625 164.808594 C 152.226562 163.113281 149.101562 161.09375 146.1875 158.75 C 143.273438 156.40625 140.632812 153.789062 138.265625 150.894531 C 135.894531 148 133.851562 144.894531 132.128906 141.574219 C 132.007812 141.339844 131.863281 141.121094 131.699219 140.914062 C 131.535156 140.710938 131.351562 140.523438 131.152344 140.351562 C 130.949219 140.183594 130.734375 140.035156 130.503906 139.910156 C 130.273438 139.78125 130.03125 139.679688 129.78125 139.597656 C 129.53125 139.519531 129.273438 139.464844 129.011719 139.433594 C 128.75 139.40625 128.488281 139.402344 128.226562 139.425781 C 127.964844 139.445312 127.707031 139.496094 127.453125 139.566406 C 127.199219 139.640625 126.957031 139.738281 126.722656 139.859375 C 126.488281 139.980469 126.269531 140.121094 126.0625 140.285156 C 125.855469 140.449219 125.667969 140.632812 125.5 140.835938 C 125.328125 141.035156 125.179688 141.25 125.054688 141.480469 C 124.925781 141.710938 124.820312 141.953125 124.742188 142.203125 C 124.660156 142.453125 124.605469 142.710938 124.578125 142.972656 C 124.546875 143.234375 124.542969 143.496094 124.566406 143.757812 C 124.585938 144.019531 124.636719 144.277344 124.707031 144.53125 C 124.78125 144.785156 124.875 145.027344 124.996094 145.261719 C 125.984375 147.164062 127.066406 149.011719 128.246094 150.804688 C 129.425781 152.59375 130.691406 154.316406 132.050781 155.976562 C 133.40625 157.636719 134.847656 159.21875 136.371094 160.730469 C 137.890625 162.238281 139.488281 163.664062 141.15625 165.007812 C 142.828125 166.351562 144.5625 167.605469 146.363281 168.769531 C 148.164062 169.933594 150.019531 171 151.929688 171.96875 C 153.84375 172.941406 155.796875 173.808594 157.800781 174.578125 C 159.800781 175.34375 161.835938 176.007812 163.90625 176.5625 C 164.328125 176.671875 164.75 176.714844 165.183594 176.691406 C 165.660156 176.664062 166.117188 176.554688 166.554688 176.363281 C 166.992188 176.171875 167.382812 175.910156 167.726562 175.578125 C 168.070312 175.25 168.34375 174.871094 168.554688 174.441406 C 168.761719 174.011719 168.890625 173.558594 168.941406 173.085938 C 168.988281 172.609375 168.953125 172.144531 168.832031 171.679688 C 168.714844 171.21875 168.519531 170.792969 168.246094 170.398438 C 167.976562 170.007812 167.644531 169.675781 167.253906 169.398438 C 166.867188 169.125 166.441406 168.925781 165.980469 168.804688 Z M 165.980469 168.804688 " fill-opacity="1" fill-rule="nonzero"/></g></g></g><g clip-path="url(#6cff06f2a1)"><g clip-path="url(#dc90147c0c)"><g clip-path="url(#9394e98a77)"><path fill="#dc143c" d="M 263.238281 7.136719 C 263.042969 6.960938 262.828125 6.804688 262.601562 6.671875 C 262.375 6.539062 262.136719 6.429688 261.886719 6.34375 C 261.636719 6.257812 261.382812 6.195312 261.121094 6.160156 C 260.859375 6.125 260.597656 6.117188 260.335938 6.132812 C 260.070312 6.148438 259.8125 6.1875 259.558594 6.253906 C 259.300781 6.320312 259.054688 6.414062 258.820312 6.527344 C 258.582031 6.644531 258.359375 6.78125 258.148438 6.941406 C 257.9375 7.101562 257.746094 7.277344 257.570312 7.476562 L 223.234375 46.195312 C 223.058594 46.390625 222.90625 46.605469 222.773438 46.832031 C 222.640625 47.058594 222.53125 47.296875 222.445312 47.546875 C 222.359375 47.796875 222.296875 48.050781 222.261719 48.3125 C 222.226562 48.574219 222.214844 48.835938 222.230469 49.097656 C 222.246094 49.363281 222.289062 49.621094 222.355469 49.875 C 222.421875 50.132812 222.511719 50.378906 222.628906 50.613281 C 222.742188 50.851562 222.878906 51.074219 223.039062 51.285156 C 223.199219 51.496094 223.378906 51.6875 223.574219 51.863281 L 228.382812 56.128906 L 226.015625 58.800781 C 224.769531 57.808594 223.488281 56.859375 222.179688 55.949219 C 220.871094 55.039062 219.535156 54.171875 218.171875 53.351562 C 216.808594 52.527344 215.417969 51.75 214.003906 51.015625 C 212.589844 50.28125 211.152344 49.59375 209.695312 48.953125 C 208.234375 48.3125 206.757812 47.71875 205.261719 47.171875 C 203.765625 46.625 202.25 46.128906 200.722656 45.679688 C 199.195312 45.230469 197.652344 44.832031 196.097656 44.480469 C 194.542969 44.132812 192.976562 43.832031 191.40625 43.582031 C 189.832031 43.335938 188.25 43.136719 186.664062 42.988281 C 185.078125 42.839844 183.488281 42.746094 181.894531 42.699219 C 180.300781 42.65625 178.710938 42.660156 177.117188 42.71875 C 175.523438 42.777344 173.9375 42.886719 172.351562 43.042969 C 170.765625 43.203125 169.1875 43.414062 167.613281 43.675781 C 166.042969 43.9375 164.480469 44.25 162.929688 44.609375 C 161.378906 44.972656 159.839844 45.382812 158.3125 45.84375 C 156.789062 46.304688 155.28125 46.816406 153.785156 47.371094 C 152.292969 47.929688 150.820312 48.535156 149.367188 49.1875 C 147.914062 49.839844 146.484375 50.539062 145.074219 51.285156 C 143.664062 52.027344 142.28125 52.816406 140.925781 53.652344 C 139.566406 54.484375 138.238281 55.363281 136.933594 56.28125 C 135.632812 57.199219 134.363281 58.160156 133.125 59.160156 C 131.882812 60.164062 130.675781 61.203125 129.503906 62.28125 C 128.332031 63.359375 127.195312 64.476562 126.09375 65.628906 C 124.992188 66.777344 123.929688 67.964844 122.90625 69.183594 C 121.882812 70.40625 120.898438 71.65625 119.953125 72.941406 C 119.007812 74.222656 118.105469 75.535156 117.246094 76.878906 C 116.386719 78.21875 115.570312 79.589844 114.800781 80.980469 C 114.027344 82.375 113.300781 83.792969 112.621094 85.234375 C 111.941406 86.675781 111.308594 88.136719 110.722656 89.617188 C 110.132812 91.097656 109.597656 92.597656 109.105469 94.113281 C 108.617188 95.628906 108.175781 97.160156 107.785156 98.707031 C 107.390625 100.25 107.050781 101.804688 106.757812 103.371094 C 106.46875 104.9375 106.226562 106.511719 106.035156 108.09375 C 105.847656 109.675781 105.707031 111.265625 105.621094 112.855469 C 105.53125 114.445312 105.496094 116.039062 105.507812 117.632812 C 105.523438 119.222656 105.589844 120.816406 105.707031 122.40625 C 105.824219 123.992188 105.992188 125.578125 106.210938 127.15625 C 106.429688 128.734375 106.695312 130.304688 107.015625 131.863281 C 107.335938 133.425781 107.707031 134.976562 108.125 136.511719 C 108.542969 138.050781 109.011719 139.570312 109.53125 141.078125 C 110.046875 142.585938 110.613281 144.074219 111.226562 145.546875 C 111.839844 147.015625 112.5 148.464844 113.207031 149.894531 C 113.910156 151.324219 114.664062 152.726562 115.460938 154.105469 C 116.257812 155.484375 117.097656 156.839844 117.980469 158.164062 C 118.863281 159.492188 119.789062 160.785156 120.757812 162.054688 C 121.722656 163.320312 122.730469 164.554688 123.777344 165.753906 C 124.824219 166.957031 125.910156 168.121094 127.03125 169.253906 C 128.152344 170.386719 129.308594 171.480469 130.5 172.539062 C 131.691406 173.59375 132.917969 174.613281 134.175781 175.59375 C 135.433594 176.570312 136.71875 177.507812 138.039062 178.402344 C 139.355469 179.300781 140.699219 180.152344 142.074219 180.960938 C 143.445312 181.769531 144.84375 182.535156 146.265625 183.253906 C 147.6875 183.972656 149.132812 184.644531 150.597656 185.269531 C 152.0625 185.898438 153.546875 186.476562 155.046875 187.007812 C 156.550781 187.539062 158.066406 188.019531 159.601562 188.453125 C 161.132812 188.886719 162.679688 189.269531 164.238281 189.601562 C 165.796875 189.9375 167.363281 190.21875 168.941406 190.453125 C 170.515625 190.683594 172.097656 190.867188 173.6875 191 C 175.273438 191.128906 176.863281 191.210938 178.457031 191.238281 C 180.050781 191.265625 181.644531 191.242188 183.234375 191.171875 C 184.828125 191.097656 186.414062 190.972656 188 190.796875 C 189.582031 190.621094 191.160156 190.394531 192.726562 190.117188 C 194.296875 189.839844 195.855469 189.511719 197.402344 189.132812 C 198.953125 188.753906 200.484375 188.328125 202.007812 187.851562 C 203.527344 187.375 205.03125 186.851562 206.515625 186.277344 C 208.003906 185.703125 209.46875 185.085938 210.917969 184.417969 C 212.363281 183.75 213.789062 183.035156 215.1875 182.277344 C 216.589844 181.519531 217.964844 180.714844 219.3125 179.867188 C 220.664062 179.019531 221.984375 178.128906 223.277344 177.195312 C 224.566406 176.265625 225.828125 175.289062 227.058594 174.277344 C 228.289062 173.261719 229.484375 172.210938 230.644531 171.121094 C 231.804688 170.03125 232.933594 168.902344 234.019531 167.738281 C 235.109375 166.578125 236.160156 165.378906 237.171875 164.148438 C 238.183594 162.917969 239.15625 161.65625 240.085938 160.363281 C 241.019531 159.070312 241.90625 157.75 242.753906 156.398438 C 243.597656 155.046875 244.398438 153.671875 245.15625 152.269531 C 245.914062 150.867188 246.625 149.441406 247.292969 147.996094 C 247.957031 146.546875 248.578125 145.082031 249.148438 143.59375 C 249.71875 142.105469 250.242188 140.601562 250.714844 139.078125 C 251.191406 137.558594 251.617188 136.023438 251.992188 134.476562 C 252.367188 132.925781 252.691406 131.367188 252.96875 129.796875 C 253.242188 128.230469 253.46875 126.652344 253.640625 125.070312 C 253.816406 123.484375 253.9375 121.898438 254.011719 120.304688 C 254.082031 118.714844 254.101562 117.121094 254.070312 115.527344 C 254.039062 113.933594 253.957031 112.34375 253.824219 110.757812 C 253.691406 109.167969 253.507812 107.585938 253.273438 106.011719 C 253.039062 104.433594 252.753906 102.867188 252.417969 101.308594 C 252.082031 99.753906 251.695312 98.207031 251.261719 96.675781 C 250.828125 95.140625 250.34375 93.625 249.808594 92.121094 C 249.277344 90.621094 248.695312 89.136719 248.070312 87.671875 C 247.441406 86.210938 246.765625 84.765625 246.046875 83.34375 C 245.324219 81.925781 244.558594 80.527344 243.746094 79.15625 C 242.9375 77.785156 242.082031 76.441406 241.183594 75.125 C 240.289062 73.808594 239.347656 72.519531 238.367188 71.265625 C 237.390625 70.007812 236.371094 68.785156 235.308594 67.59375 C 234.25 66.402344 233.15625 65.246094 232.023438 64.128906 L 234.390625 61.457031 L 239.203125 65.726562 C 239.398438 65.898438 239.613281 66.054688 239.839844 66.1875 C 240.066406 66.320312 240.304688 66.429688 240.554688 66.515625 C 240.804688 66.601562 241.058594 66.664062 241.320312 66.699219 C 241.582031 66.734375 241.84375 66.746094 242.105469 66.730469 C 242.371094 66.714844 242.628906 66.671875 242.882812 66.605469 C 243.140625 66.539062 243.386719 66.445312 243.621094 66.332031 C 243.859375 66.214844 244.082031 66.078125 244.292969 65.917969 C 244.503906 65.761719 244.695312 65.582031 244.871094 65.386719 L 279.207031 26.660156 C 279.382812 26.464844 279.535156 26.253906 279.667969 26.023438 C 279.800781 25.796875 279.910156 25.558594 279.996094 25.308594 C 280.082031 25.058594 280.144531 24.804688 280.179688 24.542969 C 280.214844 24.28125 280.226562 24.019531 280.210938 23.757812 C 280.195312 23.496094 280.152344 23.234375 280.085938 22.980469 C 280.019531 22.726562 279.929688 22.480469 279.8125 22.242188 C 279.699219 22.003906 279.5625 21.78125 279.402344 21.570312 C 279.242188 21.363281 279.0625 21.167969 278.867188 20.996094 Z M 229.4375 160.847656 C 228.71875 161.660156 227.980469 162.453125 227.222656 163.226562 C 226.460938 164.003906 225.6875 164.757812 224.890625 165.496094 C 224.09375 166.230469 223.28125 166.949219 222.449219 167.644531 C 221.621094 168.34375 220.773438 169.019531 219.910156 169.675781 C 219.046875 170.328125 218.164062 170.964844 217.269531 171.574219 C 216.375 172.1875 215.464844 172.777344 214.542969 173.34375 C 213.617188 173.914062 212.679688 174.457031 211.730469 174.976562 C 210.78125 175.5 209.816406 175.996094 208.84375 176.472656 C 207.867188 176.945312 206.878906 177.394531 205.882812 177.820312 C 204.886719 178.246094 203.878906 178.648438 202.863281 179.023438 C 201.84375 179.402344 200.820312 179.753906 199.785156 180.078125 C 198.75 180.402344 197.710938 180.703125 196.660156 180.980469 C 195.613281 181.253906 194.558594 181.503906 193.496094 181.726562 C 192.433594 181.949219 191.367188 182.144531 190.296875 182.316406 C 189.226562 182.488281 188.152344 182.632812 187.074219 182.75 C 185.996094 182.867188 184.917969 182.960938 183.835938 183.023438 C 182.753906 183.089844 181.667969 183.128906 180.585938 183.140625 C 179.5 183.152344 178.417969 183.136719 177.332031 183.09375 C 176.25 183.054688 175.167969 182.984375 174.089844 182.890625 C 173.007812 182.796875 171.929688 182.675781 170.855469 182.527344 C 169.78125 182.378906 168.710938 182.207031 167.648438 182.007812 C 166.582031 181.804688 165.519531 181.582031 164.464844 181.328125 C 163.410156 181.078125 162.363281 180.796875 161.324219 180.496094 C 160.28125 180.191406 159.25 179.863281 158.222656 179.507812 C 157.199219 179.152344 156.183594 178.773438 155.175781 178.371094 C 154.171875 177.96875 153.175781 177.539062 152.191406 177.085938 C 151.207031 176.632812 150.230469 176.15625 149.269531 175.65625 C 148.308594 175.152344 147.359375 174.628906 146.421875 174.082031 C 145.488281 173.535156 144.566406 172.964844 143.65625 172.371094 C 142.75 171.78125 141.855469 171.164062 140.980469 170.53125 C 140.101562 169.894531 139.238281 169.234375 138.394531 168.554688 C 137.546875 167.878906 136.71875 167.179688 135.910156 166.460938 C 135.097656 165.738281 134.304688 165 133.527344 164.242188 C 132.753906 163.484375 132 162.707031 131.261719 161.910156 C 130.523438 161.117188 129.808594 160.304688 129.109375 159.472656 C 128.414062 158.640625 127.738281 157.792969 127.082031 156.929688 C 126.425781 156.066406 125.792969 155.1875 125.179688 154.292969 C 124.570312 153.398438 123.980469 152.488281 123.410156 151.5625 C 122.84375 150.640625 122.300781 149.703125 121.777344 148.753906 C 121.257812 147.800781 120.757812 146.839844 120.285156 145.863281 C 119.8125 144.886719 119.359375 143.902344 118.933594 142.90625 C 118.507812 141.90625 118.109375 140.902344 117.730469 139.882812 C 117.355469 138.867188 117.003906 137.839844 116.679688 136.808594 C 116.351562 135.773438 116.050781 134.730469 115.777344 133.683594 C 115.503906 132.632812 115.253906 131.578125 115.03125 130.519531 C 114.808594 129.457031 114.609375 128.390625 114.441406 127.320312 C 114.269531 126.25 114.125 125.175781 114.007812 124.097656 C 113.886719 123.019531 113.796875 121.9375 113.730469 120.855469 C 113.667969 119.773438 113.628906 118.691406 113.617188 117.605469 C 113.605469 116.523438 113.621094 115.4375 113.660156 114.355469 C 113.703125 113.273438 113.769531 112.191406 113.867188 111.109375 C 113.960938 110.03125 114.082031 108.953125 114.230469 107.878906 C 114.375 106.804688 114.550781 105.734375 114.75 104.667969 C 114.949219 103.601562 115.175781 102.542969 115.429688 101.488281 C 115.679688 100.433594 115.957031 99.386719 116.261719 98.34375 C 116.566406 97.304688 116.894531 96.269531 117.25 95.246094 C 117.601562 94.222656 117.980469 93.207031 118.386719 92.199219 C 118.789062 91.191406 119.21875 90.199219 119.671875 89.210938 C 120.125 88.226562 120.601562 87.253906 121.101562 86.292969 C 121.601562 85.332031 122.125 84.382812 122.671875 83.445312 C 123.222656 82.507812 123.792969 81.585938 124.382812 80.679688 C 124.976562 79.769531 125.589844 78.878906 126.226562 78 C 126.863281 77.121094 127.519531 76.261719 128.199219 75.414062 C 128.878906 74.570312 129.578125 73.742188 130.296875 72.929688 C 131.015625 72.117188 131.753906 71.324219 132.515625 70.550781 C 133.273438 69.777344 134.050781 69.019531 134.84375 68.28125 C 135.640625 67.546875 136.453125 66.828125 137.285156 66.132812 C 138.113281 65.433594 138.960938 64.757812 139.824219 64.105469 C 140.691406 63.449219 141.570312 62.816406 142.464844 62.203125 C 143.359375 61.589844 144.269531 61 145.191406 60.433594 C 146.117188 59.867188 147.054688 59.320312 148.003906 58.800781 C 148.957031 58.277344 149.917969 57.78125 150.894531 57.304688 C 151.867188 56.832031 152.855469 56.382812 153.851562 55.957031 C 154.847656 55.53125 155.855469 55.128906 156.871094 54.753906 C 157.890625 54.378906 158.914062 54.027344 159.949219 53.699219 C 160.984375 53.375 162.023438 53.074219 163.074219 52.796875 C 164.121094 52.523438 165.175781 52.273438 166.238281 52.050781 C 167.300781 51.828125 168.367188 51.632812 169.4375 51.460938 C 170.507812 51.289062 171.582031 51.144531 172.660156 51.027344 C 173.738281 50.910156 174.816406 50.820312 175.898438 50.753906 C 176.980469 50.6875 178.066406 50.652344 179.148438 50.640625 C 180.234375 50.628906 181.316406 50.640625 182.402344 50.683594 C 183.484375 50.726562 184.566406 50.792969 185.648438 50.886719 C 186.726562 50.980469 187.804688 51.101562 188.878906 51.25 C 189.953125 51.398438 191.023438 51.570312 192.089844 51.773438 C 193.152344 51.972656 194.214844 52.199219 195.269531 52.449219 C 196.324219 52.703125 197.371094 52.980469 198.414062 53.285156 C 199.453125 53.585938 200.484375 53.914062 201.511719 54.269531 C 202.535156 54.625 203.550781 55.003906 204.558594 55.40625 C 205.5625 55.8125 206.558594 56.238281 207.542969 56.691406 C 208.53125 57.144531 209.503906 57.621094 210.464844 58.125 C 211.425781 58.625 212.375 59.148438 213.3125 59.695312 C 214.246094 60.242188 215.167969 60.8125 216.078125 61.40625 C 216.984375 61.996094 217.878906 62.613281 218.757812 63.25 C 219.632812 63.886719 220.496094 64.542969 221.339844 65.222656 C 222.1875 65.902344 223.015625 66.597656 223.828125 67.320312 C 224.636719 68.039062 225.429688 68.777344 226.203125 69.539062 C 226.976562 70.296875 227.730469 71.074219 228.46875 71.871094 C 229.203125 72.664062 229.921875 73.480469 230.617188 74.308594 C 231.3125 75.140625 231.988281 75.988281 232.640625 76.851562 C 233.296875 77.71875 233.929688 78.597656 234.539062 79.492188 C 235.152344 80.386719 235.742188 81.296875 236.308594 82.21875 C 236.875 83.144531 237.417969 84.082031 237.9375 85.03125 C 238.460938 85.984375 238.957031 86.945312 239.429688 87.921875 C 239.902344 88.894531 240.351562 89.882812 240.777344 90.878906 C 241.203125 91.875 241.605469 92.882812 241.980469 93.898438 C 242.355469 94.917969 242.707031 95.941406 243.03125 96.976562 C 243.359375 98.011719 243.65625 99.050781 243.933594 100.101562 C 244.207031 101.148438 244.457031 102.203125 244.679688 103.265625 C 244.902344 104.324219 245.097656 105.390625 245.269531 106.460938 C 245.4375 107.53125 245.582031 108.605469 245.699219 109.683594 C 245.820312 110.761719 245.910156 111.839844 245.976562 112.921875 C 246.039062 114.003906 246.078125 115.089844 246.089844 116.171875 C 246.101562 117.257812 246.085938 118.339844 246.046875 119.421875 C 246.003906 120.507812 245.9375 121.585938 245.84375 122.667969 C 245.746094 123.746094 245.628906 124.824219 245.480469 125.898438 C 245.332031 126.972656 245.160156 128.042969 244.960938 129.109375 C 244.761719 130.171875 244.535156 131.234375 244.28125 132.289062 C 244.03125 133.339844 243.753906 134.390625 243.453125 135.429688 C 243.148438 136.472656 242.820312 137.503906 242.464844 138.527344 C 242.113281 139.554688 241.734375 140.570312 241.332031 141.574219 C 240.925781 142.582031 240.5 143.578125 240.046875 144.5625 C 239.59375 145.546875 239.121094 146.519531 238.621094 147.480469 C 238.121094 148.445312 237.597656 149.394531 237.050781 150.328125 C 236.503906 151.265625 235.933594 152.1875 235.34375 153.097656 C 234.75 154.003906 234.136719 154.898438 233.5 155.777344 C 232.867188 156.652344 232.210938 157.515625 231.53125 158.363281 C 230.855469 159.207031 230.15625 160.035156 229.4375 160.847656 Z M 241.527344 57.054688 L 231.90625 48.519531 L 260.914062 15.804688 L 270.535156 24.339844 Z M 241.527344 57.054688 " fill-opacity="1" fill-rule="nonzero"/></g></g></g><g clip-path="url(#83329a5d9d)"><path stroke-linecap="butt" transform="matrix(1.636363, 0, 0, 1.636363, 137.295654, 95.90296)" fill="none" stroke-linejoin="miter" d="M 5.999662 6.000927 L 25.999231 6.000927 L 25.999231 26.000496 L 5.999662 26.000496 Z M 5.999662 6.000927 " stroke="#000000" stroke-width="2" stroke-opacity="1" stroke-miterlimit="10"/></g><g fill="#dc143c" fill-opacity="1"><g transform="translate(22.499999, 183.656521)"><g><path d="M 97 -98.265625 L 97 -109.363281 L 5.390625 -109.363281 L 5.390625 -98.265625 L 44.378906 -98.265625 L 44.378906 0 L 58.007812 0 L 58.007812 -98.265625 Z M 97 -98.265625 "/></g></g></g><g fill="#dc143c" fill-opacity="1"><g transform="translate(230.244746, 183.656521)"><g><path d="M 101.4375 0 L 101.121094 -109.363281 L 87.804688 -109.363281 L 87.804688 -54.679688 C 87.804688 -41.84375 87.964844 -26.152344 88.28125 -13.3125 L 36.769531 -109.363281 L 15.847656 -109.363281 L 15.847656 0 L 29.480469 0 L 29.480469 -54.679688 C 29.480469 -67.519531 29.320312 -83.210938 29.003906 -96.046875 L 80.515625 0 Z M 101.4375 0 "/></g></g></g><path fill="#dc143c" d="M 197.679688 131.078125 C 197.964844 131.367188 198.351562 131.53125 198.753906 131.53125 C 198.804688 131.53125 198.851562 131.527344 198.902344 131.523438 C 199.355469 131.480469 199.769531 131.230469 200.015625 130.847656 L 211.984375 112.601562 C 212.445312 111.910156 212.25 110.972656 211.550781 110.511719 C 210.855469 110.054688 209.914062 110.25 209.457031 110.949219 L 198.519531 127.625 L 194.40625 123.445312 C 193.820312 122.855469 192.863281 122.847656 192.273438 123.433594 C 191.675781 124.019531 191.667969 124.976562 192.253906 125.570312 L 197.679688 131.078125 " fill-opacity="1" fill-rule="nonzero"/><g clip-path="url(#ec02b8b47d)"><path fill="#dc143c" d="M 216.628906 136.316406 L 187.421875 136.316406 L 187.421875 107.109375 L 216.628906 107.109375 Z M 218.605469 104.085938 L 185.449219 104.085938 C 184.871094 104.085938 184.402344 104.5625 184.402344 105.15625 L 184.402344 138.265625 C 184.402344 138.855469 184.871094 139.335938 185.449219 139.335938 L 218.605469 139.335938 C 219.183594 139.335938 219.652344 138.855469 219.652344 138.265625 L 219.652344 105.15625 C 219.652344 104.5625 219.183594 104.085938 218.605469 104.085938 " fill-opacity="1" fill-rule="nonzero"/></g></svg>